<svg 
    id="Fewer_Facets" 
    data-name="Fewer Facets" 
    xmlns="http://www.w3.org/2000/svg" 
    viewBox="0 0 1950.67 2572.83">
<defs>
    <style>
        .facet, .hangar{
            fill: #16131d;
            <!-- transform: translateY(-100%); -->

            <!-- animation: slide-in 2s forwards;   -->
        }

        .hangar {
            fill: #606060;
        }

        .glowing-facet-1 {
            fill: #16131d;
            <!-- transform: translateY(-100%); -->
            animation: filter-animation-1 2s 2s infinite; 
        }

        @keyframes filter-animation-1 {
            0% {fill: #16131d;}
            33% { fill: #16131d;}
            66% { fill: #16131d;}
            100% {fill: #8EFCA1;}
        }

        .glowing-facet-2 {
            fill: #16131d;
            <!-- transform: translateY(-100%); -->
            animation: filter-animation-2 2s 2s infinite;
        }

        @keyframes filter-animation-2 {
            0% {fill: #16131d;}
            33% { fill: #A18EFC}
            66% { fill: #16131d;}
            100% { fill: #16131d;}
        }

        .glowing-facet-3 {
            fill: #16131d;
            <!-- transform: translateY(-100%); -->
            animation: filter-animation-3 2s 2s infinite;
        }

        @keyframes filter-animation-3 {
            0% {fill: #16131d;}
            33% {fill: #16131d;}
            66% {fill: #FCA18E}
            100% {fill: #16131d;}
        }

        .facet, .glowing-facet-1, .glowing-facet-2, .glowing-facet-3, hangar{
            stroke:#424242;
            stroke-miterlimit:10;
            stroke-width:12px;
            
        }

        @keyframes slide-in {
            100% {transform: translateY(-1%);}
        }

    </style>
</defs>

<path class="glowing-facet-1" d="M1491,1252.62a1558,1558,0,0,1,35.65,195.27q45.41,4.38,90.65,9.69c41.48,4.88,82.93,10.45,124.15,17.22a1178.79,1178.79,0,0,0-40.08-179.69c-28-7-55.84-13.15-82.68-18.85Q1555.26,1262.78,1491,1252.62Z" transform="translate(-24.67 -54)"/>

<path class="facet" d="M1538.46,1637.49q.06,7,.06,14a1736.5,1736.5,0,0,1-8.76,174.94q44.16-2.58,88.26-5.69c41.19-2.92,83.35-5.53,125.66-9.06a1248.92,1248.92,0,0,0,10.25-160.19c0-3,0-6,0-9.06-44.08-1.24-88.15-2.09-132.07-3.14Q1580.14,1638.31,1538.46,1637.49Z" transform="translate(-24.67 -54)"/>

<path class="glowing-facet-2" d="M1296.24,2039.1q101.43-6.91,202.08-19.48a1589.11,1589.11,0,0,0,31.44-193.18q-106.12,6.22-212.5,9.55C1312.72,1906.74,1305.61,1974.74,1296.24,2039.1Z" transform="translate(-24.67 -54)"/>

<path class="facet" d="M1538.46,1637.49q-107.68-2.15-215.41-3.3.06,8.64.06,17.31c0,63.09-2,124.77-5.85,184.49q106.35-3.39,212.5-9.55a1736.5,1736.5,0,0,0,8.76-174.94Q1538.52,1644.48,1538.46,1637.49Z" transform="translate(-24.67 -54)"/>

<path class="glowing-facet-1" d="M502.14,2021.61c16.66,72.53,38.07,140.63,63.53,203,56.84,8.57,114,15,171.14,19.86l7.75.64c-16.29-63-30-132.16-40.82-206.15C636.45,2034.92,569.15,2029.35,502.14,2021.61Z" transform="translate(-24.67 -54)"/>

<path class="facet" d="M901.65,2047.25c3.72,74.69,8.46,144.37,14.05,207.62q84.06,2.52,168.56.4c5.6-63.23,10.34-132.91,14.06-207.59Q999.92,2049.58,901.65,2047.25Z" transform="translate(-24.67 -54)"/>

<path class="glowing-facet-3" d="M1098.32,2047.68c-3.72,74.68-8.46,144.36-14.06,207.59q85.7-2.25,171.11-9.84c16.31-63,30.09-132.27,40.87-206.33Q1197.48,2045.85,1098.32,2047.68Z" transform="translate(-24.67 -54)"/>

<path class="facet" d="M682.73,1835.91c-70.83-2-141.65-4.7-212.4-8.54a1585.9,1585.9,0,0,0,31.81,194.24c67,7.74,134.31,13.31,201.6,17.39C694.38,1974.64,687.27,1906.65,682.73,1835.91Z" transform="translate(-24.67 -54)"/>

<path class="facet" d="M1255.37,2245.43q90.5-8.14,179.84-22.92c25.31-62.4,46.58-130.45,63.11-202.89q-100.56,12.66-202.08,19.48C1285.46,2113.16,1271.68,2182.39,1255.37,2245.43Z" transform="translate(-24.67 -54)"/>

<path class="glowing-facet-2" d="M721.87,821.3c-46.57,6.47-94.29,14.79-142.15,25.35-75.1,65-140.61,146.82-193.23,241.35,63.55-18.55,128.44-33,193.92-44.16C619.88,955.64,667.77,880.15,721.87,821.3Z" transform="translate(-24.67 -54)"/>

<path class="facet" d="M737.52,1022.81q8.51-.85,17-1.65c24.26-84.95,53.34-157.16,86-212.82q-51.18,4.1-101.65,10.67-8.46,1.11-17,2.29c-54.1,58.85-102,134.34-141.46,222.54C632.55,1034.93,685.05,1028.06,737.52,1022.81Z" transform="translate(-24.67 -54)"/>

<path class="glowing-facet-1" d="M509.65,1250.25c18.79-74.3,42.64-143.58,70.76-206.41C514.93,1055,450,1069.45,386.49,1088a1075.92,1075.92,0,0,0-86.56,203.08l13.21-3.24C377.89,1272.12,443.55,1259.86,509.65,1250.25Z" transform="translate(-24.67 -54)"/>

<path class="facet" d="M461.54,1637.16a1724.34,1724.34,0,0,1,12-190.82q-80.54,7.2-160.67,17.87c-17.68,2.39-35.69,4.8-53.85,7.38a1243.48,1243.48,0,0,0-12.93,170.73q30.7-.85,61.35-1.65Q384.5,1638.55,461.54,1637.16Z" transform="translate(-24.67 -54)"/>

<path class="facet" d="M473.57,1446.34a1553.54,1553.54,0,0,1,36.08-196.09c-66.1,9.61-131.76,21.87-196.51,37.59l-13.21,3.24a1178.76,1178.76,0,0,0-40.88,180.51c18.16-2.58,36.17-5,53.85-7.38Q393,1453.4,473.57,1446.34Z" transform="translate(-24.67 -54)"/>

<path class="facet" d="M1420.64,1046.2c-39.43-88.65-87.32-164.58-141.48-223.79q-59.48-9-119.63-14c32.6,55.62,61.65,127.77,85.9,212.64C1304.29,1027,1362.81,1035.32,1420.64,1046.2Z" transform="translate(-24.67 -54)"/>

<path class="facet" d="M1617,1094.26c-51.92-94.84-116.72-177.17-191.15-242.78q-72.37-17.87-146.65-29.07c54.16,59.21,102,135.14,141.48,223.79A1824.39,1824.39,0,0,1,1617,1094.26Z" transform="translate(-24.67 -54)"/>

<path class="glowing-facet-3" d="M919.19,1010.64c8.17-83.32,17.9-153.91,28.78-208q-54,1.44-107.48,5.75c-32.62,55.66-61.7,127.87-86,212.82Q836.18,1013.49,919.19,1010.64Z" transform="translate(-24.67 -54)"/>

<path class="facet" d="M1080.77,1010.31c-8.16-83.2-17.88-153.69-28.75-207.77q-52.08-1.35-104,.05c-10.88,54.14-20.61,124.73-28.78,208Q999.74,1008,1080.77,1010.31Z" transform="translate(-24.67 -54)"/>

<path class="glowing-facet-2" d="M709.2,1228.52c-66.66,5.12-133.33,12.09-199.55,21.73a1553.54,1553.54,0,0,0-36.08,196.09c70.41-6.29,141-10.77,211.62-14C690.68,1361,698.79,1292.79,709.2,1228.52Z" transform="translate(-24.67 -54)"/>

<path class="facet" d="M894.33,1840c-1.33-61-2-124-2-188.47q0-9.36,0-18.69-76.5.29-153,.86-31.19.24-62.37.54c0,5.76-.06,11.51-.06,17.29,0,63.06,2,124.71,5.84,184.41q29.1.83,58.2,1.48Q817.58,1839.15,894.33,1840Z" transform="translate(-24.67 -54)"/>

<path class="glowing-facet-3" d="M740.93,1837.39q-29.1-.66-58.2-1.48c4.54,70.74,11.65,138.73,21,203.09q18.13,1.1,36.27,2.07,80.57,4.28,161.64,6.18c-3.26-65.56-5.73-135-7.32-207.28Q817.59,1839.16,740.93,1837.39Z" transform="translate(-24.67 -54)"/>

<path class="facet" d="M894.33,1840c1.59,72.3,4.06,141.72,7.32,207.28q98.19,2.22,196.67.43c3.27-65.61,5.75-135.08,7.34-207.45Q1000,1841.16,894.33,1840Z" transform="translate(-24.67 -54)"/>

<path class="glowing-facet-1" d="M892.32,1632.81c.15-71.21,1.15-140.55,2.92-207.21q-79.31,1.39-158.39,4.49-25.83,1-51.66,2.2c-5,65-7.84,132.6-8.24,201.92q31.18-.29,62.37-.54Q815.82,1633.1,892.32,1632.81Z" transform="translate(-24.67 -54)"/>

<path class="facet" d="M676.89,1651.5c0-5.78,0-11.53.06-17.29q-107.72,1-215.41,3c0,4.77-.06,9.55-.06,14.34a1739.68,1739.68,0,0,0,8.85,175.87c70.75,3.84,141.57,6.56,212.4,8.54C678.9,1776.21,676.89,1714.56,676.89,1651.5Z" transform="translate(-24.67 -54)"/>

<path class="facet" d="M1314.8,1432.17c-5.49-71.27-13.61-139.53-24-203.82q-96.91-8.3-194.42-10.57c3.63,65.28,6.47,134.77,8.4,207.43Q1209.84,1426.77,1314.8,1432.17Z" transform="translate(-24.67 -54)"/>

<path class="glowing-facet-2" d="M1107.7,1651.5c0,64.58-.7,127.68-2,188.73q105.83-.93,211.6-4.24c3.84-59.72,5.85-121.4,5.85-184.49q0-8.67-.06-17.31-107.67-1.17-215.37-1.47Q1107.7,1642.1,1107.7,1651.5Z" transform="translate(-24.67 -54)"/>

<path class="glowing-facet-3" d="M895.24,1425.6c-1.77,66.66-2.77,136-2.92,207.21q107.67-.39,215.36-.09c-.15-71.32-1.15-140.75-2.93-207.51Q999.95,1423.67,895.24,1425.6Z" transform="translate(-24.67 -54)"/>

<path class="facet" d="M1104.75,1425.21c-1.93-72.66-4.77-142.15-8.4-207.43q-96.46-2.37-192.72.49c-3.63,65.25-6.47,134.7-8.39,207.33Q999.9,1423.76,1104.75,1425.21Z" transform="translate(-24.67 -54)"/>

<path class="facet" d="M895.24,1425.6c1.92-72.63,4.76-142.08,8.39-207.33q-83.37,2.37-166,8.17-14.21,1-28.41,2.08c-10.41,64.27-18.52,132.52-24,203.77q25.83-1.2,51.66-2.2Q815.9,1427,895.24,1425.6Z" transform="translate(-24.67 -54)"/>

<path class="glowing-facet-1" d="M892.32,1632.81q0,9.33,0,18.69c0,64.49.7,127.51,2,188.47q105.63,1.14,211.33.26c1.34-61,2-124.15,2-188.73q0-9.4,0-18.78Q1000,1632.41,892.32,1632.81Z" transform="translate(-24.67 -54)"/>

<path class="facet" d="M1096.35,1217.78c-4.2-75.27-9.44-145-15.58-207.47q-80.9-2.43-161.58.33c-6.13,62.56-11.37,132.29-15.56,207.63Q999.75,1215.53,1096.35,1217.78Z" transform="translate(-24.67 -54)"/>

<path class="glowing-facet-3" d="M754.53,1021.16q-8.5.81-17,1.65c-52.47,5.25-105,12.12-157.11,21-28.12,62.83-52,132.11-70.76,206.41,66.22-9.64,132.89-16.61,199.55-21.73C721.35,1153.48,736.63,1083.85,754.53,1021.16Z" transform="translate(-24.67 -54)"/>

<path class="glowing-facet-3" d="M470.33,1827.37a1739.68,1739.68,0,0,1-8.85-175.87c0-4.79,0-9.57.06-14.34q-77,1.42-154.07,3.51-30.64.82-61.35,1.65c0,3.06-.05,6.11-.05,9.18a1248.5,1248.5,0,0,0,10.33,160.76c18.49,1.53,36.88,3,55.1,4.45Q390.84,1823.15,470.33,1827.37Z" transform="translate(-24.67 -54)"/>

<path class="glowing-facet-1" d="M1491,1252.62c-18.66-74.27-42.36-143.54-70.32-206.42-57.83-10.88-116.35-19.2-175.21-25.17,17.91,62.68,33.19,132.29,45.34,207.32Q1391.47,1237,1491,1252.62Z" transform="translate(-24.67 -54)"/>

<path class="facet" d="M1290.77,1228.35c-12.15-75-27.43-144.64-45.34-207.32q-82-8.31-164.66-10.72c6.14,62.51,11.38,132.2,15.58,207.47Q1193.72,1220.17,1290.77,1228.35Z" transform="translate(-24.67 -54)"/>

<path class="glowing-facet-3" d="M1314.8,1432.17q106.15,5.58,211.81,15.72A1558,1558,0,0,0,1491,1252.62q-99.35-15.78-200.19-24.27C1301.19,1292.64,1309.31,1360.9,1314.8,1432.17Z" transform="translate(-24.67 -54)"/>

<path class="facet" d="M1323.05,1634.19q107.71,1.17,215.41,3.3a1725,1725,0,0,0-11.85-189.6q-105.6-10.22-211.81-15.72C1319.82,1497.25,1322.65,1564.83,1323.05,1634.19Z" transform="translate(-24.67 -54)"/>

<path class="facet" d="M1741.41,1474.8c29.26,4.81,58.4,10.22,87.35,16.45,44.56,9.59,90.31,20.5,132.89,37.65A964,964,0,0,0,1932,1384.17c-68.7-42.47-150.78-69.16-230.66-89.06A1178.79,1178.79,0,0,1,1741.41,1474.8Z" transform="translate(-24.67 -54)"/>

<path class="glowing-facet-3" d="M256.4,1812.26c-72.44-6-146.3-13.33-216.91-29.57a962.68,962.68,0,0,0,31.11,145c70.29,30.46,149.54,47.46,222.54,61.6A1188.48,1188.48,0,0,1,256.4,1812.26Z" transform="translate(-24.67 -54)"/>

<path class="glowing-facet-2" d="M370.67,2185.44a1093.11,1093.11,0,0,1-77.53-196.1c-73-14.14-152.25-31.14-222.54-61.6a962.73,962.73,0,0,0,73.23,178.64c53.76,26,111.17,45.67,165.82,62.08Q340,2177.55,370.67,2185.44Z" transform="translate(-24.67 -54)"/>

<path class="facet" d="M370.67,2185.44q-30.69-7.91-61-17c-54.65-16.41-112.06-36.12-165.82-62.08a972.87,972.87,0,0,0,187,246.45c66.06,25.59,134.37,45.7,203.8,61.38C470.94,2349.85,415.48,2272.57,370.67,2185.44Z" transform="translate(-24.67 -54)"/>

<path class="facet" d="M246.07,1651.5c0-3.07,0-6.12.05-9.18-71.84,2-143.87,4.42-215.45,10.25a978,978,0,0,0,8.82,130.12c70.61,16.24,144.47,23.58,216.91,29.57A1248.5,1248.5,0,0,1,246.07,1651.5Z" transform="translate(-24.67 -54)"/>

<path class="facet" d="M688.19,2441.91c-51.48-7.15-102.8-16.24-153.53-27.7C662.82,2543.64,824.4,2620.83,1000,2620.83,883.79,2620.83,776.18,2554.58,688.19,2441.91Z" transform="translate(-24.67 -54)"/>

<path class="facet" d="M330.86,2352.83c174,166,409.65,268,669.14,268-175.6,0-337.18-77.19-465.34-206.62C465.23,2398.53,396.92,2378.42,330.86,2352.83Z" transform="translate(-24.67 -54)"/>

<path class="glowing-facet-3" d="M1000,682.17c-234.83,0-450.16,83.51-617.91,222.45,64.29-24.32,131.09-43.3,197.63-58C699.8,742.79,844.39,682.17,1000,682.17Z" transform="translate(-24.67 -54)"/>

<path class="glowing-facet-1" d="M259.05,1471.59c-73.81,10.48-150.35,23.78-219.71,49.85a977.45,977.45,0,0,0-8.67,130.06v1.07c71.58-5.83,143.61-8.27,215.45-10.25A1243.48,1243.48,0,0,1,259.05,1471.59Z" transform="translate(-24.67 -54)"/>

<path class="facet" d="M386.49,1088q-38.61,11.28-76.52,24.64c-53.13,18.8-107.61,41.45-158.44,69.79a963.75,963.75,0,0,0-80,189.75c70.49-38.59,152.52-62.32,228.4-81.1A1075.92,1075.92,0,0,1,386.49,1088Z" transform="translate(-24.67 -54)"/>

<path class="facet" d="M1180.08,2456.45q-60.46,5-121.15,6.54c-16.93,99.8-37.18,157.84-58.93,157.84C1066.67,2620.83,1128.62,2560.25,1180.08,2456.45Z" transform="translate(-24.67 -54)"/>

<path class="glowing-facet-2" d="M1469.81,2409.64C1341,2541.82,1177.66,2620.83,1000,2620.83c265.46,0,506-106.71,681-279.57-20.38,8.44-40.88,16.25-61.29,23.51Q1546.25,2390.87,1469.81,2409.64Z" transform="translate(-24.67 -54)"/>

<path class="facet" d="M1469.81,2409.64c-51.7,12.78-104.21,23.14-157.21,31.24-88.14,113.29-196,179.95-312.6,179.95C1177.66,2620.83,1341,2541.82,1469.81,2409.64Z" transform="translate(-24.67 -54)"/>

<path class="glowing-facet-3" d="M819.83,2456.25q-41-3.3-81.63-8-25-2.88-50-6.36c88,112.67,195.6,178.92,311.81,178.92C933.29,2620.83,871.3,2560.17,819.83,2456.25Z" transform="translate(-24.67 -54)"/>

<path class="facet" d="M1707.61,1986.73A1094.8,1094.8,0,0,1,1632,2180.16c76.48-20.34,157.84-46.42,230-85A963.16,963.16,0,0,0,1932,1918.77C1863.33,1952.47,1784.31,1972.14,1707.61,1986.73Z" transform="translate(-24.67 -54)"/>

<path class="facet" d="M1058.93,2463q-59,1.5-117.89-.18c16.94,99.91,37.2,158,59,158S1042,2562.79,1058.93,2463Z" transform="translate(-24.67 -54)"/>

<path class="glowing-facet-1" d="M1312.6,2440.88q-65.85,10.07-132.52,15.57c-51.46,103.8-113.41,164.38-180.08,164.38C1116.56,2620.83,1224.46,2554.17,1312.6,2440.88Z" transform="translate(-24.67 -54)"/>

<path class="facet" d="M721.87,821.3C803.05,733,898.23,682.17,1000,682.17c-155.61,0-300.2,60.62-420.28,164.48C627.58,836.09,675.3,827.77,721.87,821.3Z" transform="translate(-24.67 -54)"/>

<path class="glowing-facet-3" d="M941,2462.81q-60.88-1.7-121.21-6.56c51.47,103.92,113.46,164.58,180.17,164.58C978.24,2620.83,958,2562.72,941,2462.81Z" transform="translate(-24.67 -54)"/>

<path class="facet" d="M1084.26,2255.27c-7.15,80.75-15.7,151-25.33,207.72q60.63-1.53,121.15-6.54c28.69-57.9,54.12-129.24,75.29-211Q1170.07,2253.1,1084.26,2255.27Z" transform="translate(-24.67 -54)"/><path class="facet" d="M1435.21,2222.51c-34.1,84.06-75.53,157.86-122.61,218.37,53-8.1,105.51-18.46,157.21-31.24,63.12-64.74,118-142.25,162.21-229.48q-7.45,2-14.84,3.89Q1527.45,2207.29,1435.21,2222.51Z" transform="translate(-24.67 -54)"/>

<path class="glowing-facet-1" d="M1498.32,2019.62c-16.53,72.44-37.8,140.49-63.11,202.89q92.07-15.36,182-38.46,7.39-1.9,14.84-3.89a1094.8,1094.8,0,0,0,75.59-193.43c-31,5.9-61.68,11-91.1,15.8Q1557.65,2012.19,1498.32,2019.62Z" transform="translate(-24.67 -54)"/>

<path class="facet" d="M736.81,2244.51c-57.12-4.86-114.3-11.29-171.14-19.86,34.12,83.64,75.52,157.08,122.52,217.26q25,3.48,50,6.36,40.57,4.68,81.63,8c-28.69-57.93-54.11-129.3-75.27-211.1Z" transform="translate(-24.67 -54)"/>

<path class="facet" d="M502.14,2021.61c-65.13-7.53-130-17.12-194.26-29.43l-14.74-2.84a1093.11,1093.11,0,0,0,77.53,196.1c64.12,16.53,129.33,29.3,195,39.21C540.21,2162.24,518.8,2094.14,502.14,2021.61Z" transform="translate(-24.67 -54)"/>

<path class="glowing-facet-2" d="M744.56,2245.15c21.16,81.8,46.58,153.17,75.27,211.1q60.26,4.85,121.21,6.56c-9.63-56.8-18.19-127.11-25.34-207.94Q829.65,2252.27,744.56,2245.15Z" transform="translate(-24.67 -54)"/>

<path class="facet" d="M915.7,2254.87c7.15,80.83,15.71,151.14,25.34,207.94q58.82,1.64,117.89.18c9.63-56.74,18.18-127,25.33-207.72Q999.89,2257.47,915.7,2254.87Z" transform="translate(-24.67 -54)"/>

<path class="glowing-facet-3" d="M1707.61,1986.73c76.7-14.59,155.72-34.26,224.4-68a965.62,965.62,0,0,0,29.06-140.25c-70.1,18.13-144,27-217.39,33.17A1188,1188,0,0,1,1707.61,1986.73Z" transform="translate(-24.67 -54)"/>

<path class="facet" d="M1741.41,1474.8a1244.79,1244.79,0,0,1,12.47,167.64c71.95,2,143.95,5,215.44,11.56,0-.83,0-1.67,0-2.5a978.3,978.3,0,0,0-7.68-122.6c-42.58-17.15-88.33-28.06-132.89-37.65C1799.81,1485,1770.67,1479.61,1741.41,1474.8Z" transform="translate(-24.67 -54)"/>

<path class="glowing-facet-2" d="M1159.53,808.39q60.09,5,119.63,14c-81.41-89-177-140.24-279.16-140.24C1058,682.17,1112.47,728.06,1159.53,808.39Z" transform="translate(-24.67 -54)"/>

<path class="facet" d="M1052,802.54q53.81,1.41,107.51,5.85C1112.47,728.06,1058,682.17,1000,682.17,1018.87,682.17,1036.6,725.84,1052,802.54Z" transform="translate(-24.67 -54)"/><path class="facet" d="M1753.93,1651.5a1248.92,1248.92,0,0,1-10.25,160.19c73.41-6.12,147.29-15,217.39-33.17a977.87,977.87,0,0,0,8.25-124.52c-71.49-6.51-143.49-9.54-215.44-11.56C1753.9,1645.46,1753.93,1648.48,1753.93,1651.5Z" transform="translate(-24.67 -54)"/>

<path class="glowing-facet-2" d="M1526.61,1447.89a1725,1725,0,0,1,11.85,189.6q41.68.84,83.35,1.81c43.92,1,88,1.9,132.07,3.14a1244.79,1244.79,0,0,0-12.47-167.64c-41.22-6.77-82.67-12.34-124.15-17.22Q1572,1452.26,1526.61,1447.89Z" transform="translate(-24.67 -54)"/>

<path class="facet" d="M740,2041.07q-18.12-1-36.27-2.07c10.77,74,24.53,143.16,40.82,206.15q85,7,171.14,9.72c-5.59-63.25-10.33-132.93-14.05-207.62Q820.62,2045.41,740,2041.07Z" transform="translate(-24.67 -54)"/>

<path class="glowing-facet-3" d="M1491,1252.62q64.26,10.2,127.69,23.64c26.84,5.7,54.63,11.86,82.68,18.85A1079.34,1079.34,0,0,0,1617,1094.26a1824.39,1824.39,0,0,0-196.32-48.06C1448.6,1109.08,1472.3,1178.35,1491,1252.62Z" transform="translate(-24.67 -54)"/>

<path class="facet" d="M1245.43,1021c-24.25-84.87-53.3-157-85.9-212.64q-53.65-4.49-107.51-5.85c10.87,54.08,20.59,124.57,28.75,207.77Q1163.27,1012.8,1245.43,1021Z" transform="translate(-24.67 -54)"/>

<path class="facet" d="M1098.32,2047.68q99.08-1.93,197.92-8.58c9.37-64.36,16.48-132.36,21-203.11q-105.75,3.38-211.6,4.24C1104.07,1912.6,1101.59,1982.07,1098.32,2047.68Z" transform="translate(-24.67 -54)"/>

<path class="glowing-facet-1" d="M737.61,1226.44q82.57-5.73,166-8.17c4.19-75.34,9.43-145.07,15.56-207.63q-82.87,2.76-164.66,10.52c-17.9,62.69-33.18,132.32-45.33,207.36Q723.41,1227.43,737.61,1226.44Z" transform="translate(-24.67 -54)"/>

<path class="glowing-facet-3" d="M685.19,1432.29c-70.61,3.28-141.21,7.76-211.62,14a1724.34,1724.34,0,0,0-12,190.82q107.7-2,215.41-3C677.35,1564.89,680.17,1497.34,685.19,1432.29Z" transform="translate(-24.67 -54)"/>

<path class="facet" d="M1104.75,1425.21c1.78,66.76,2.78,136.19,2.93,207.51q107.68.33,215.37,1.47c-.4-69.36-3.23-136.94-8.25-202Q1209.9,1426.65,1104.75,1425.21Z" transform="translate(-24.67 -54)"/>

<path class="facet" d="M386.49,1088c52.62-94.53,118.13-176.4,193.23-241.35-66.54,14.67-133.34,33.65-197.63,58a973.6,973.6,0,0,0-230.56,277.81c50.83-28.34,105.31-51,158.44-69.79Q347.85,1099.24,386.49,1088Z" transform="translate(-24.67 -54)"/>

<path class="facet" d="M299.93,1291.08c-75.88,18.78-157.91,42.51-228.4,81.1a963.69,963.69,0,0,0-32.19,149.26c69.36-26.07,145.9-39.37,219.71-49.85A1178.76,1178.76,0,0,1,299.93,1291.08Z" transform="translate(-24.67 -54)"/>

<path class="facet" d="M1469.81,2409.64q76.29-18.85,149.94-44.87c20.41-7.26,40.91-15.07,61.29-23.51a972.34,972.34,0,0,0,181-246.12c-72.21,38.6-153.57,64.68-230,85C1587.79,2267.39,1532.93,2344.9,1469.81,2409.64Z" transform="translate(-24.67 -54)"/>

<path class="glowing-facet-2" d="M502.14,2021.61a1585.9,1585.9,0,0,1-31.81-194.24q-79.49-4.3-158.83-10.66c-18.22-1.48-36.61-2.92-55.1-4.45a1188.48,1188.48,0,0,0,36.74,177.08l14.74,2.84C372.16,2004.49,437,2014.08,502.14,2021.61Z" transform="translate(-24.67 -54)"/>

<path class="facet" d="M1255.37,2245.43c-21.17,81.78-46.6,153.12-75.29,211q66.59-5.55,132.52-15.57c47.08-60.51,88.51-134.31,122.61-218.37Q1346,2237.39,1255.37,2245.43Z" transform="translate(-24.67 -54)"/>

<path class="facet" d="M1618,1820.75q-44.1,3.12-88.26,5.69a1589.11,1589.11,0,0,1-31.44,193.18q59.31-7.47,118.19-17.09c29.42-4.83,60.07-9.9,91.1-15.8a1188,1188,0,0,0,36.07-175C1701.37,1815.22,1659.21,1817.83,1618,1820.75Z" transform="translate(-24.67 -54)"/>

<path class="glowing-facet-1" d="M370.67,2185.44c44.81,87.13,100.27,164.41,164,228.77,50.73,11.46,102.05,20.55,153.53,27.7-47-60.18-88.4-133.62-122.52-217.26C500,2214.74,434.79,2202,370.67,2185.44Z" transform="translate(-24.67 -54)"/>

<path class="glowing-facet-3" d="M1279.16,822.41q74.13,11.26,146.65,29.07C1304.65,744.67,1158,682.17,1000,682.17,1102.2,682.17,1197.75,733.41,1279.16,822.41Z" transform="translate(-24.67 -54)"/>

<path class="facet" d="M948,802.59q51.91-1.4,104-.05c-15.42-76.7-33.15-120.37-52-120.37S963.39,725.86,948,802.59Z" transform="translate(-24.67 -54)"/>

<path class="glowing-facet-1" d="M840.49,808.34Q894,804.07,948,802.59c15.42-76.73,33.16-120.42,52-120.42C942,682.17,887.55,728,840.49,808.34Z" transform="translate(-24.67 -54)"/>

<path class="facet" d="M1617,1094.26a1079.34,1079.34,0,0,1,84.37,200.85c79.88,19.9,162,46.59,230.66,89.06a963.46,963.46,0,0,0-75.74-187.41c-73.59-45.33-157.61-77.43-237.75-102Z" transform="translate(-24.67 -54)"/>

<path class="glowing-facet-2" d="M721.87,821.3q8.5-1.18,17-2.29,50.42-6.56,101.65-10.67C887.55,728,942,682.17,1000,682.17,898.23,682.17,803.05,733,721.87,821.3Z" transform="translate(-24.67 -54)"/>

<path class="facet" d="M1620.92,914.21q8,3.24,16,6.61c-170.35-148.62-393.14-238.65-637-238.65,158,0,304.65,62.5,425.81,169.31A1452.09,1452.09,0,0,1,1620.92,914.21Z" transform="translate(-24.67 -54)"/>

<path class="glowing-facet-3" d="M1425.81,851.48C1500.24,917.09,1565,999.42,1617,1094.26l1.54.47c80.14,24.6,164.16,56.7,237.75,102A973.6,973.6,0,0,0,1637,920.82q-8-3.36-16-6.61A1452.09,1452.09,0,0,0,1425.81,851.48Z" transform="translate(-24.67 -54)"/>

<path class="hangar" d="M1013,601V54H987V601a88.07,88.07,0,0,0-75,87.09H946.7a53.3,53.3,0,0,1,106.6,0h34.75A88.07,88.07,0,0,0,1013,601Z" transform="translate(-24.67 -54)"/>

</svg>